HIERARCHY
ROOT Hips
{
  OFFSET 0 0.240689 0
  CHANNELS 6 Xposition Yposition Zposition Zrotation Xrotation Yrotation
  JOINT Bip01_Spine0
  {
    OFFSET 0 -24.7459 49.7988
    CHANNELS 6 Xposition Yposition Zposition Zrotation Xrotation Yrotation
    JOINT Bip01_Pelvis
    {
      OFFSET 0 0 0
      CHANNELS 6 Xposition Yposition Zposition Zrotation Xrotation Yrotation
      JOINT Bip01_Spine0_Tail
      {
        OFFSET -6.47486 -3.86022 0
        CHANNELS 6 Xposition Yposition Zposition Zrotation Xrotation Yrotation
        JOINT Bip01_Spine0_Tail1
        {
          OFFSET 10.3837 -0.00825882 0
          CHANNELS 6 Xposition Yposition Zposition Zrotation Xrotation Yrotation
          JOINT Bip01_Spine0_Tail2
          {
            OFFSET 10.3837 -0.00826263 0
            CHANNELS 6 Xposition Yposition Zposition Zrotation Xrotation Yrotation
            JOINT Bip01_Spine0_Tail3
            {
              OFFSET 10.3837 -0.00825882 0
              CHANNELS 6 Xposition Yposition Zposition Zrotation Xrotation Yrotation
              JOINT Bip01_Spine0_Tail4
              {
                OFFSET 10.3837 -0.00826263 0
                CHANNELS 6 Xposition Yposition Zposition Zrotation Xrotation Yrotation
                End Site
                {
                  OFFSET 0 0 0
                }
              }
            }
          }
        }
      }
      JOINT Bip01_R_Thigh
      {
        OFFSET 0 -1.52588e-005 -8.75617
        CHANNELS 6 Xposition Yposition Zposition Zrotation Xrotation Yrotation
        JOINT Bip01_R_Calf
        {
          OFFSET 19.7638 0 0
          CHANNELS 6 Xposition Yposition Zposition Zrotation Xrotation Yrotation
          JOINT Bip01_R_Foot
          {
            OFFSET 18.6534 0 0
            CHANNELS 6 Xposition Yposition Zposition Zrotation Xrotation Yrotation
            JOINT Bip01_R_Toe0
            {
              OFFSET 5.09145 13.9567 0
              CHANNELS 6 Xposition Yposition Zposition Zrotation Xrotation Yrotation
              JOINT Bip01_R_Toe01
              {
                OFFSET 4.28803 0 0
                CHANNELS 6 Xposition Yposition Zposition Zrotation Xrotation Yrotation
                JOINT Bip01_R_Toe02
                {
                  OFFSET 3.85801 0 0
                  CHANNELS 6 Xposition Yposition Zposition Zrotation Xrotation Yrotation
                  End Site
                  {
                    OFFSET 0 0 0
                  }
                }
              }
            }
          }
        }
      }
      JOINT Bip01_L_Thigh
      {
        OFFSET 0 1.52588e-005 8.75617
        CHANNELS 6 Xposition Yposition Zposition Zrotation Xrotation Yrotation
        JOINT Bip01_L_Calf
        {
          OFFSET 19.7638 0 0
          CHANNELS 6 Xposition Yposition Zposition Zrotation Xrotation Yrotation
          JOINT Bip01_L_Foot
          {
            OFFSET 18.6534 0 0
            CHANNELS 6 Xposition Yposition Zposition Zrotation Xrotation Yrotation
            JOINT Bip01_L_Toe0
            {
              OFFSET 5.09144 13.9567 0
              CHANNELS 6 Xposition Yposition Zposition Zrotation Xrotation Yrotation
              JOINT Bip01_L_Toe01
              {
                OFFSET 4.28802 0 0
                CHANNELS 6 Xposition Yposition Zposition Zrotation Xrotation Yrotation
                JOINT Bip01_L_Toe02
                {
                  OFFSET 3.85801 0 0
                  CHANNELS 6 Xposition Yposition Zposition Zrotation Xrotation Yrotation
                  End Site
                  {
                    OFFSET 0 0 0
                  }
                }
              }
            }
          }
        }
      }
      JOINT Bip01_Spine
      {
        OFFSET 9.14835 -0.00640869 -1.1e-005
        CHANNELS 6 Xposition Yposition Zposition Zrotation Xrotation Yrotation
        JOINT Bip01_Spine1
        {
          OFFSET 8.04366 -0.00638199 0
          CHANNELS 6 Xposition Yposition Zposition Zrotation Xrotation Yrotation
          JOINT Bip01_Spine2
          {
            OFFSET 8.04367 -0.00639343 0
            CHANNELS 6 Xposition Yposition Zposition Zrotation Xrotation Yrotation
            JOINT Bip01_Spine3
            {
              OFFSET 8.04304 -0.00831222 0
              CHANNELS 6 Xposition Yposition Zposition Zrotation Xrotation Yrotation
              JOINT Bip01_Neck
              {
                OFFSET 10.6685 1.06813 0
                CHANNELS 6 Xposition Yposition Zposition Zrotation Xrotation Yrotation
                JOINT Bip01_R_Clavicle
                {
                  OFFSET -3.21661 -4.89635 -9.04802
                  CHANNELS 6 Xposition Yposition Zposition Zrotation Xrotation Yrotation
                  JOINT Bip01_R_UpperArm
                  {
                    OFFSET 19.0492 0 0
                    CHANNELS 6 Xposition Yposition Zposition Zrotation Xrotation Yrotation
                    JOINT Bip01_R_Forearm
                    {
                      OFFSET 10.3706 0 0
                      CHANNELS 6 Xposition Yposition Zposition Zrotation Xrotation Yrotation
                      JOINT Bip01_R_Hand
                      {
                        OFFSET 22.8632 0 0
                        CHANNELS 6 Xposition Yposition Zposition Zrotation Xrotation Yrotation
                        JOINT Bip01_R_Finger0
                        {
                          OFFSET 6.48259 0.103651 0.504496
                          CHANNELS 6 Xposition Yposition Zposition Zrotation Xrotation Yrotation
                          JOINT Bip01_R_Finger01
                          {
                            OFFSET 3.66847 0 0
                            CHANNELS 6 Xposition Yposition Zposition Zrotation Xrotation Yrotation
                            End Site
                            {
                              OFFSET 0 0 0
                            }
                          }
                        }
                      }
                    }
                  }
                }
                JOINT Bip01_L_Clavicle
                {
                  OFFSET -3.21661 -4.89641 9.04797
                  CHANNELS 6 Xposition Yposition Zposition Zrotation Xrotation Yrotation
                  JOINT Bip01_L_UpperArm
                  {
                    OFFSET 19.0492 0 0
                    CHANNELS 6 Xposition Yposition Zposition Zrotation Xrotation Yrotation
                    JOINT Bip01_L_Forearm
                    {
                      OFFSET 10.3706 0 0
                      CHANNELS 6 Xposition Yposition Zposition Zrotation Xrotation Yrotation
                      JOINT Bip01_L_Hand
                      {
                        OFFSET 22.8631 0 0
                        CHANNELS 6 Xposition Yposition Zposition Zrotation Xrotation Yrotation
                        JOINT Bip01_L_Finger0
                        {
                          OFFSET 6.48257 0.103655 -0.504492
                          CHANNELS 6 Xposition Yposition Zposition Zrotation Xrotation Yrotation
                          JOINT Bip01_L_Finger01
                          {
                            OFFSET 3.66844 0 0
                            CHANNELS 6 Xposition Yposition Zposition Zrotation Xrotation Yrotation
                            End Site
                            {
                              OFFSET 0 0 0
                            }
                          }
                        }
                      }
                    }
                  }
                }
                JOINT Bip01_Neck1
                {
                  OFFSET 7.52459 -0.00656509 0
                  CHANNELS 6 Xposition Yposition Zposition Zrotation Xrotation Yrotation
                  JOINT Bip01_Neck2
                  {
                    OFFSET 8.4783 -0.00588226 0
                    CHANNELS 6 Xposition Yposition Zposition Zrotation Xrotation Yrotation
                    JOINT Bip01_Head
                    {
                      OFFSET 8.41606 0 0
                      CHANNELS 6 Xposition Yposition Zposition Zrotation Xrotation Yrotation
                      JOINT EyesBlue
                      {
                        OFFSET 0 0 0
                        CHANNELS 6 Xposition Yposition Zposition Zrotation Xrotation Yrotation
                        JOINT EyesBlue_2
                        {
                          OFFSET 0 -0.500007 0
                          CHANNELS 6 Xposition Yposition Zposition Zrotation Xrotation Yrotation
                          End Site
                          {
                            OFFSET 0 0 0
                          }
                        }
                      }
                      JOINT Bip01_Head2_Eyeleds
                      {
                        OFFSET 6.52751 7.61746 2.2e-005
                        CHANNELS 6 Xposition Yposition Zposition Zrotation Xrotation Yrotation
                        End Site
                        {
                          OFFSET 0 0 0
                        }
                      }
                      JOINT Bip01_Head_Muzzle
                      {
                        OFFSET 2.88628 13.9448 3.88994
                        CHANNELS 6 Xposition Yposition Zposition Zrotation Xrotation Yrotation
                        End Site
                        {
                          OFFSET 0 0 0
                        }
                      }
                      JOINT Bip01_Head1_Jaw
                      {
                        OFFSET 0.271065 1.32405 0
                        CHANNELS 6 Xposition Yposition Zposition Zrotation Xrotation Yrotation
                        JOINT _Bip01_Head11_TungeControler
                        {
                          OFFSET 4.61616 5.82872 0
                          CHANNELS 6 Xposition Yposition Zposition Zrotation Xrotation Yrotation
                          JOINT _Bip01_Ponytail3_tunge
                          {
                            OFFSET 5.17785 2.98805 0
                            CHANNELS 6 Xposition Yposition Zposition Zrotation Xrotation Yrotation
                            JOINT Bip01_Ponytail31
                            {
                              OFFSET 5.57569 0 0
                              CHANNELS 6 Xposition Yposition Zposition Zrotation Xrotation Yrotation
                              JOINT Bip01_Ponytail32
                              {
                                OFFSET 2.93165 0 0
                                CHANNELS 6 Xposition Yposition Zposition Zrotation Xrotation Yrotation
                                JOINT Bip01_Ponytail3Nub
                                {
                                  OFFSET 3.30155 0 0
                                  CHANNELS 6 Xposition Yposition Zposition Zrotation Xrotation Yrotation
                                  End Site
                                  {
                                    OFFSET 0 0 0
                                  }
                                }
                              }
                            }
                          }
                        }
                        JOINT Bip01_Head_JawNub
                        {
                          OFFSET 15.5776 -0.000389099 0
                          CHANNELS 6 Xposition Yposition Zposition Zrotation Xrotation Yrotation
                          End Site
                          {
                            OFFSET 0 0 0
                          }
                        }
                      }
                      JOINT Bip01_Ponytail2
                      {
                        OFFSET 9.40334 1.03973 -6.51764
                        CHANNELS 6 Xposition Yposition Zposition Zrotation Xrotation Yrotation
                        JOINT Bip01_Ponytail21
                        {
                          OFFSET 2.77018 -0.00640106 1.33514e-005
                          CHANNELS 6 Xposition Yposition Zposition Zrotation Xrotation Yrotation
                          End Site
                          {
                            OFFSET 0 0 0
                          }
                        }
                      }
                      JOINT Bip01_Ponytail1
                      {
                        OFFSET 9.40368 1.03969 6.51768
                        CHANNELS 6 Xposition Yposition Zposition Zrotation Xrotation Yrotation
                        JOINT Bip01_Ponytail11
                        {
                          OFFSET 2.77018 -0.00640487 0
                          CHANNELS 6 Xposition Yposition Zposition Zrotation Xrotation Yrotation
                          End Site
                          {
                            OFFSET 0 0 0
                          }
                        }
                      }
                    }
                  }
                }
              }
            }
          }
        }
      }
    }
  }
}
MOTION
Frames:	4
Frame Time:	0.0333333
-4.59999e-006 0 -217.937 -0 -90 -0 0.000799 -24.7447 54.2484 90.0001 -0.000676576 87.5411 0 0 0 -90.0005 0.000266061 -101.698 -6.34508 -3.85845 1.31458 176.263 -5.3766 -17.2282 10.3831 -0.008125 -3.8e-005 -1.84385 0.641835 10.2376 10.3816 -0.007976 0.000269998 -10.9819 -1.03306 9.68153 10.3843 -0.008117 0.000764999 2.74358 -5.2151 11.7661 10.3827 -0.007957 0.001878 -3.91529 -12.5116 4.51302 1.1e-005 -1.5e-005 -8.75617 -83.0024 -9.80448 -173.555 19.7638 -2.84217e-014 1.06581e-014 -65.5669 0.000179244 0.000834283 18.6534 3e-006 3.55271e-015 -42.5439 1.75876 7.4994 5.09143 13.9567 4.38756e-007 96.6067 3.84496 -2.64831 4.288 0 1.06581e-014 48.2672 0.000242481 0.000100342 3.85799 0 3.55271e-015 -48.341 0.000806227 0.00232229 -1.5e-005 1.5e-005 8.75617 -77.481 -11.9485 177.363 19.7638 -1e-006 -1e-006 -82.3961 -0.000166314 -0.0025867 18.6534 3.55271e-014 -7.10543e-015 -36.0622 -0.727385 -6.44531 5.09144 13.9567 1.1885e-007 81.6088 -3.37563 3.69066 4.288 -3e-006 3.19744e-014 -18.5 -1.56749e-007 -2.28376e-007 3.85799 3e-006 -2.4869e-014 -2.5 -1.73551e-005 -7.77674e-007 8.95703 -0.006088 -1.85427 -10.5236 -3.82584 22.2439 8.04383 -0.006286 0.0001 0.744416 -0.181958 -5.59231 8.04374 -0.00629 0.0001 1.29911 0.183286 -2.09421 8.04399 -0.008228 0.000128 3.8732 -0.783789 -3.03523 10.6688 1.06807 4.48222e-005 -10.4616 -0.408676 4.44764 -4.40171 -3.86759 -9.048 177.855 -85.4221 125.518 19.0492 1e-006 -7e-006 85.3591 6.19699 -105.477 10.3706 0 -1e-006 -86.5139 2.96712e-005 0.000890854 22.8631 -3e-006 1.63425e-013 -9.22678 6.1491 2.06028 6.48256 0.103653 0.504496 -33.4094 -11.1743 -10.6003 3.66843 -2.34479e-013 3e-006 40.1083 0.000915546 0.000418824 -4.40171 -3.86765 9.04799 177.865 85.64 -131.756 19.0492 0 0 77.3694 -42.5364 77.8019 10.3706 0 2.13163e-014 -70.1125 0.000493426 0.00272125 22.8631 -3e-006 7.60281e-013 37.1157 -9.43437 6.73693 6.48256 0.103653 -0.504495 -14.6488 13.4002 6.96436 3.66843 3e-006 9.99999e-007 25.0023 0.00161706 0.00104666 7.52528 -0.006645 2.49997e-005 -7.98896 0.0013978 0.00161059 8.47874 -0.005424 1.69998e-005 32.2118 0.000915563 0.000516018 8.41605 7e-006 -1.5703e-012 -88.771 1.01379 1.61107 -7e-006 3e-006 -3e-006 -23.1098 1.37701e-015 90 -2.13579e-006 -0.500008 -2.80879e-006 -65.4725 90 155.472 0 0 0 -113.549 7.01671e-015 -180 2.8863 13.9448 3.88993 -23.4392 1.39554e-015 90 0 0 0 -73.9314 7.01671e-015 -180 0 0 0 -109.195 -2.76954e-006 -2.06137e-005 0 0 0 133.265 -1.06362e-005 -7.48333 0 0 0 -12.9802 -7.95757 -4.53374 0 0 0 -26.8129 -3.75939 -5.85163 0 0 0 -26.1943 -5.75809e-007 -4.70501e-006 15.5776 -0.000404 -6.99999e-006 -3.18055e-015 -1.98785e-016 -7.95139e-016 9.4036 1.03979 -6.51604 -5.64846 -19.8276 19.844 2.77012 -0.006019 0.002113 2.26303 -19.4436 -0.51233 9.40406 1.0397 6.51625 -5.64966 19.8303 -19.8416 2.77011 -0.006046 -0.002105 2.26216 19.4462 0.514455 
-4.8e-006 0 -227.413 -0 -90 -0 0.000799 -24.7447 54.7056 89.9998 0.000995093 92.3333 0 0 0 -90.0008 0.000611599 -102.05 -6.33884 -3.85845 1.35431 -169.614 -10.765 -18.6694 10.3831 -0.008125 -3.8e-005 -1.41176 0.721647 7.36791 10.3816 -0.007976 0.000270001 -8.95804 -0.787791 6.84985 10.3843 -0.008117 0.000765002 -1.74841 -5.79256 8.4927 10.3827 -0.007957 0.001878 -3.35371 -12.459 1.77179 1.1e-005 -1.5e-005 -8.75617 -80.2773 -10.1231 -172.664 19.7638 8.52651e-014 4.44089e-015 -69.8132 0.000146106 0.000834556 18.6534 3e-006 2.66454e-015 -44.3342 1.05674 7.56173 5.09143 13.9567 2.58915e-007 88.6707 4.26885 -2.08498 4.288 1.42109e-014 -7.10543e-015 36.0956 0.000214224 0.000148687 3.85799 0 3.55271e-015 -46.9891 0.000863122 0.00230393 -1.5e-005 1.5e-005 8.75617 -77.8325 -12.3249 177.192 19.7638 -1e-006 -1e-006 -90.7863 1.75418e-005 -0.00258546 18.6534 2.84217e-014 2.22045e-015 -30.7237 -0.548606 -6.60129 5.09144 13.9567 1.19359e-007 81.6088 -3.37563 3.69066 4.288 -3e-006 4.9738e-014 -18.5 -2.2146e-007 -3.06927e-007 3.85799 3e-006 -3.19744e-014 -2.5 -1.75049e-005 -7.85092e-007 8.94563 -0.006088 -1.90936 -8.36405 -3.08855 22.6714 8.04383 -0.006286 0.0001 -2.13668 0.101974 -5.64015 8.04374 -0.00629 0.0001 1.57822 0.171834 -2.14042 8.04399 -0.008228 0.000128 5.68476 -0.884439 -3.05933 10.6688 1.06807 4.39495e-005 -10.4616 -0.408723 4.44764 -4.40171 -3.86759 -9.048 177.865 -85.4228 120.507 19.0492 1e-006 -7e-006 83.8826 4.41638 -104.167 10.3706 -2.84217e-014 -1e-006 -85.9166 3.34247e-005 0.00089048 22.8631 -3e-006 1.13687e-013 -9.57046 6.42225 2.61946 6.48256 0.103653 0.504496 -47.2648 -8.30675 -12.9415 3.66843 -3.2685e-013 3e-006 40.1083 0.000916831 0.000417539 -4.40171 -3.86765 9.04799 177.82 85.7624 -130.112 19.0492 3.55272e-015 -2.84217e-014 79.2723 -46.8099 81.9085 10.3706 -2.84217e-014 1.42109e-014 -64.5956 0.000634303 0.00271824 22.8631 -3e-006 6.89226e-013 24.4528 -8.51034 3.69746 6.48256 0.103653 -0.504495 -22.3283 12.0708 8.97941 3.66843 3e-006 1e-006 24.6588 0.00161764 0.00105299 7.52528 -0.006645 2.49996e-005 -7.89842 0.00140065 0.00160851 8.47874 -0.005424 1.69997e-005 28.8658 0.000880415 0.000567498 8.41605 7e-006 -1.07292e-012 -88.4665 0.729534 1.5917 -7e-006 3e-006 -3e-006 -23.1098 1.37701e-015 90 -2.13512e-006 -0.500008 -2.81078e-006 -66.9116 90 156.912 0 0 0 -113.549 -1.52588e-005 -180 2.8863 13.9448 3.88993 -23.4392 1.39554e-015 90 0 0 0 -75.2014 -7.01671e-015 -180 0 0 0 -110.43 -1.98308e-006 -2.11041e-005 0 0 0 133.318 -4.03177e-006 -6.64998 0 0 0 -11.2679 -7.07605 -4.02068 0 0 0 -30.0165 -4.98402 -7.80214 0 0 0 -26.1943 -2.94879e-007 -4.18446e-006 15.5776 -0.000404 -6.99999e-006 3.18055e-015 3.97569e-016 -7.95139e-016 9.4036 1.03979 -6.51604 -5.39481 -19.5018 19.3388 2.77012 -0.006019 0.002113 2.25834 -19.9404 -0.51315 9.40406 1.0397 6.51625 -5.39588 19.5043 -19.3362 2.77011 -0.006046 -0.002105 2.2578 19.9431 0.515839 
-4.99999e-006 0 -236.888 -0 -90 -0 0.000799 -24.7447 54.5107 89.9996 0.000348112 97.3872 0 0 0 -90.0005 0.000570718 -102.486 -6.32948 -3.85845 1.40296 -161.835 -13.881 -19.8103 10.3831 -0.008125 -3.8e-005 0.720767 1.10202 4.98809 10.3816 -0.007976 0.00027 -5.77311 -0.315279 4.54179 10.3843 -0.008117 0.000765001 -2.07074 -5.54287 6.1127 10.3827 -0.007957 0.001878 -0.827936 -12.2224 -0.0280828 1.1e-005 -1.5e-005 -8.75617 -78.2708 -10.5446 -171.91 19.7638 5.68434e-014 9.32587e-015 -74.0471 0.000113824 0.000834566 18.6534 3e-006 0 -45.3857 0.485111 7.56551 5.09143 13.9567 1.7467e-007 81.3317 4.59799 -1.5208 4.288 -2.84217e-014 5.32907e-015 24.544 0.000178873 0.000188633 3.85799 -4.26326e-014 -3.55271e-015 -45.746 0.000935926 0.00228536 -1.5e-005 1.5e-005 8.75617 -79.8989 -12.7446 177.06 19.7638 -1e-006 -1e-006 -101.706 0.000264635 -0.00258555 18.6534 0 0 -22.4438 -0.22395 -6.55099 5.09144 13.9567 1.16875e-007 81.6088 -3.37563 3.69066 4.288 -3e-006 6.39488e-014 -18.5 -6.89687e-007 -3.83165e-007 3.85799 3e-006 -2.13163e-014 -2.5 -1.82856e-005 -7.74607e-007 8.93122 -0.006088 -1.97754 -5.52619 -2.08609 23.1785 8.04383 -0.006286 0.0001 -5.38253 0.429008 -5.69714 8.04374 -0.00629 0.0001 1.70294 0.165437 -2.19942 8.04399 -0.008228 0.000128 7.63749 -0.997295 -3.09383 10.6688 1.06807 4.52464e-005 -10.4616 -0.408656 4.44765 -4.40171 -3.86759 -9.048 177.861 -85.4196 115.127 19.0492 1e-006 -7e-006 82.7583 3.0412 -102.375 10.3706 -1.42109e-014 -1e-006 -85.3503 3.74043e-005 0.000889886 22.8631 -3e-006 1.20792e-013 -7.79636 7.08485 3.38781 6.48256 0.103653 0.504496 -62.6075 -4.55112 -14.6952 3.66843 -2.91323e-013 3e-006 40.1083 0.000915841 0.000417404 -4.40171 -3.86765 9.04799 177.828 85.6036 -127.404 19.0492 0 0 82.566 -48.1262 87.9987 10.3706 0 0 -60.913 0.000725685 0.00271571 22.8631 -3e-006 3.83693e-013 9.50064 -7.48757 0.256277 6.48256 0.103653 -0.504495 -29.8025 11.4343 10.263 3.66843 3e-006 1e-006 24.8257 0.00163937 0.00103895 7.52528 -0.006645 2.49994e-005 -7.4823 0.001412 0.00159842 8.47874 -0.005424 1.69996e-005 24.4658 0.000833072 0.000632102 8.41605 7e-006 -7.72715e-013 -87.6579 0.38699 1.53547 -7e-006 3e-006 -3e-006 -23.1098 1.37701e-015 90 -2.13445e-006 -0.500008 -2.81347e-006 -68.8945 90 158.895 0 0 0 -113.549 -1.52588e-005 -180 2.8863 13.9448 3.88993 -23.4392 1.39554e-015 90 0 0 0 -76.4714 -1.52588e-005 -180 0 0 0 -111.666 -1.21809e-006 -2.14564e-005 0 0 0 133.371 -1.05635e-006 -5.81665 0 0 0 -9.57163 -6.1929 -3.51052 0 0 0 -33.2569 -6.18886 -9.74849 0 0 0 -26.1943 -3.37168e-008 -3.53416e-006 15.5776 -0.000404 -6.99999e-006 -3.18055e-015 -7.95139e-016 -0 9.4036 1.03979 -6.51604 -5.28284 -19.3593 19.1133 2.77012 -0.006019 0.002113 2.26431 -19.2771 -0.511716 9.40406 1.0397 6.51625 -5.28323 19.3614 -19.1107 2.77011 -0.006046 -0.002105 2.26445 19.2787 0.514851 
-5.19999e-006 0 -246.363 -0 -90 -0 0.000799 -24.7447 53.8723 90 -6.40879e-005 100.033 0 0 0 -89.9995 3.72415e-005 -102.819 -6.32166 -3.85845 1.43995 -158.595 -15.1867 -21.0934 10.3831 -0.008125 -3.8e-005 4.10681 1.63077 3.10214 10.3816 -0.007976 0.00027 -1.58553 0.305264 2.7443 10.3843 -0.008117 0.000765 1.56098 -4.80991 4.643 10.3827 -0.007957 0.001878 3.55793 -11.8775 -0.908065 1.1e-005 -1.5e-005 -8.75617 -77.4899 -10.9331 -171.478 19.7638 5.68434e-014 6.21725e-015 -78.1184 8.40812e-005 0.000834272 18.6534 3e-006 1.33227e-015 -44.7975 0.198109 7.54691 5.09143 13.9567 1.41262e-007 77.5209 4.73399 -1.21015 4.288 7.10543e-015 7.10543e-015 18.7274 0.000157504 0.00020614 3.85799 0 -8.88178e-015 -45.1069 0.00100737 0.00227534 -1.5e-005 1.5e-005 8.75617 -84.0427 -12.9452 176.623 19.7638 -1e-006 -1e-006 -109.91 0.000457391 -0.00258419 18.6534 2.84217e-014 5.32907e-015 -13.1715 -0.383738 -6.35883 5.09144 13.9567 1.11072e-007 81.6088 -3.37563 3.69066 4.288 -3e-006 5.50671e-014 -18.5 -4.12255e-007 -3.34216e-007 3.85799 3e-006 -3.01981e-014 -2.5 -1.77677e-005 -7.80327e-007 8.91992 -0.006088 -2.02966 -2.76164 -1.05216 23.5338 8.04383 -0.006286 0.0001 -7.15821 0.614151 -5.74615 8.04374 -0.00629 0.0001 2.16805 0.145411 -2.25769 8.04399 -0.008228 0.000128 9.39386 -1.10264 -3.12746 10.6688 1.06807 4.51211e-005 -10.4616 -0.408649 4.44765 -4.40171 -3.86759 -9.048 177.854 -85.4181 110.202 19.0492 1e-006 -7e-006 82.0066 3.19542 -100.229 10.3706 -4.26326e-014 -1e-006 -84.0224 4.81355e-005 0.00088906 22.8631 -3e-006 8.52651e-014 -7.74493 7.83643 4.55467 6.48256 0.103653 0.504496 -81.7473 0.656749 -15.4414 3.66843 -1.42109e-013 3e-006 40.1083 0.000912926 0.000419453 -4.40171 -3.86765 9.04799 177.848 85.4427 -125.322 19.0492 0 -2.84217e-014 86.1892 -48.8053 94.5864 10.3706 5.68435e-014 -3.55271e-015 -58.1617 0.000800771 0.00271102 22.8631 -3e-006 1.7053e-013 -4.98814 -5.49535 -2.5875 6.48256 0.103653 -0.504495 -37.9925 10.082 11.6024 3.66843 3e-006 1e-006 26.1765 0.00170546 0.000977576 7.52528 -0.006645 2.5001e-005 -6.89177 0.00141234 0.00158216 8.47874 -0.005424 1.69993e-005 19.2041 0.000773285 0.000704289 8.41605 7e-006 -6.27054e-013 -87.6146 0.0101964 1.38487 -7e-006 3e-006 -3e-006 -23.1098 1.37701e-015 90 -2.13396e-006 -0.500008 -2.81671e-006 -80.4263 90 170.426 0 0 0 -113.549 -1.52588e-005 -180 2.8863 13.9448 3.88993 -23.4392 1.39554e-015 90 0 0 0 -77.7413 -1.52588e-005 -180 0 0 0 -112.901 -5.12897e-007 -2.17083e-005 0 0 0 133.424 -3.13504e-006 -4.98331 0 0 0 -7.89115 -5.3083 -3.00288 0 0 0 -31.8635 -7.13047 -10.2263 0 0 0 -26.1943 -1.58075e-007 -3.32754e-006 15.5776 -0.000404 -6.99999e-006 3.18055e-015 3.97569e-016 7.95139e-016 9.4036 1.03979 -6.51604 -5.79214 -20.014 20.1302 2.77012 -0.006019 0.002113 2.27055 -18.5988 -0.51087 9.40406 1.0397 6.51625 -5.79181 20.0164 -20.1285 2.77011 -0.006046 -0.002105 2.27081 18.5998 0.513494 
